<svg version="1.1" xmlns="http://www.w3.org/2000/svg" viewBox="0 0 397.9245356054332 301.3349569513621" width="397.9245356054332" height="301.3349569513621">
  <!-- svg-source:excalidraw -->

  <g stroke-linecap="round"><g transform="translate(201.72114997127574 56.16911925579154) rotate(0 -52.11449827521926 33.380638803488864)"><path d="M0 0 C-17.37 11.13, -86.86 55.63, -104.23 66.76" stroke="#767676" stroke-width="1.5" fill="none" stroke-dasharray="8 9"></path></g></g><mask></mask><g stroke-linecap="round"><g transform="translate(224.36187431318717 56.721866695053905) rotate(0 74.23517911480133 32.5384092357815)"><path d="M0 0 C24.75 10.85, 123.73 54.23, 148.47 65.08" stroke="#767676" stroke-width="1.5" fill="none" stroke-dasharray="8 9"></path></g></g><mask></mask><g stroke-linecap="round"><g transform="translate(95.79610995567623 56.15887588946953) rotate(0 138.08945944553022 0)"><path d="M0 0 C46.03 0, 230.15 0, 276.18 0 M0 0 C46.03 0, 230.15 0, 276.18 0" stroke="#000000" stroke-width="1" fill="none"></path></g></g><mask></mask><g transform="translate(217.43571496451227 10) rotate(0 16.890625 9.199999999999989)"><text x="0" y="0" font-family="Times New Roman" font-size="16px" fill="#000000" text-anchor="start" style="white-space: pre;" direction="ltr" dominant-baseline="text-before-edge">Flow</text></g><g stroke-linecap="round" transform="translate(94.1527051345679 44.59630408653857) rotate(0 139.26177027869142 11.5)"><path d="M0 0 C0 0, 0 0, 0 0 M0 0 C0 0, 0 0, 0 0 M-0.26 6.4 C1.54 4.33, 3.34 2.26, 4.99 0.36 M-0.26 6.4 C1.79 4.04, 3.84 1.67, 4.99 0.36 M0.13 12.04 C2.67 9.12, 5.21 6.2, 10.63 -0.03 M0.13 12.04 C2.37 9.47, 4.6 6.9, 10.63 -0.03 M-0.13 18.44 C3.41 14.37, 6.95 10.3, 15.62 0.33 M-0.13 18.44 C4.55 13.06, 9.23 7.68, 15.62 0.33 M0.92 23.33 C6.09 17.38, 11.26 11.43, 21.26 -0.07 M0.92 23.33 C7.52 15.74, 14.12 8.15, 21.26 -0.07 M5.91 23.69 C12.87 15.68, 19.83 7.67, 26.25 0.29 M5.91 23.69 C11.32 17.46, 16.73 11.24, 26.25 0.29 M11.55 23.29 C16.56 17.53, 21.58 11.76, 31.89 -0.1 M11.55 23.29 C18.39 15.43, 25.22 7.57, 31.89 -0.1 M16.54 23.65 C21.99 17.39, 27.43 11.12, 36.88 0.26 M16.54 23.65 C21.51 17.93, 26.49 12.21, 36.88 0.26 M22.18 23.26 C29.23 15.15, 36.28 7.04, 42.52 -0.14 M22.18 23.26 C29.33 15.04, 36.47 6.82, 42.52 -0.14 M27.17 23.62 C32.46 17.54, 37.74 11.45, 47.51 0.22 M27.17 23.62 C33.64 16.17, 40.11 8.73, 47.51 0.22 M32.81 23.22 C39.29 15.77, 45.77 8.32, 53.15 -0.17 M32.81 23.22 C38.16 17.08, 43.5 10.93, 53.15 -0.17 M37.8 23.58 C45.19 15.08, 52.58 6.58, 58.14 0.19 M37.8 23.58 C42.1 18.64, 46.4 13.69, 58.14 0.19 M42.79 23.94 C48.3 17.6, 53.81 11.26, 63.78 -0.21 M42.79 23.94 C48.08 17.85, 53.38 11.76, 63.78 -0.21 M48.43 23.55 C54.7 16.33, 60.98 9.12, 68.77 0.15 M48.43 23.55 C56.33 14.47, 64.22 5.38, 68.77 0.15 M53.42 23.91 C60.02 16.32, 66.62 8.73, 74.41 -0.24 M53.42 23.91 C59.51 16.9, 65.61 9.88, 74.41 -0.24 M59.06 23.51 C63.36 18.57, 67.66 13.62, 79.4 0.12 M59.06 23.51 C66.2 15.3, 73.34 7.08, 79.4 0.12 M64.05 23.87 C71.31 15.52, 78.57 7.17, 85.04 -0.28 M64.05 23.87 C69.02 18.15, 74 12.43, 85.04 -0.28 M69.69 23.48 C75.28 17.05, 80.87 10.62, 90.03 0.08 M69.69 23.48 C76.65 15.48, 83.6 7.47, 90.03 0.08 M74.68 23.84 C80.23 17.45, 85.79 11.05, 95.67 -0.31 M74.68 23.84 C81.83 15.61, 88.99 7.37, 95.67 -0.31 M80.32 23.45 C86.15 16.73, 91.99 10.02, 100.66 0.05 M80.32 23.45 C85.24 17.79, 90.16 12.13, 100.66 0.05 M85.31 23.81 C91.92 16.2, 98.53 8.6, 106.3 -0.34 M85.31 23.81 C92.45 15.59, 99.59 7.38, 106.3 -0.34 M90.95 23.41 C97.49 15.89, 104.03 8.36, 111.29 0.02 M90.95 23.41 C96.45 17.08, 101.96 10.75, 111.29 0.02 M95.94 23.77 C103.58 14.98, 111.22 6.19, 116.27 0.38 M95.94 23.77 C103.29 15.31, 110.64 6.86, 116.27 0.38 M101.58 23.38 C106.45 17.78, 111.31 12.18, 121.92 -0.02 M101.58 23.38 C107.42 16.66, 113.26 9.94, 121.92 -0.02 M106.57 23.74 C111.92 17.58, 117.28 11.42, 126.91 0.34 M106.57 23.74 C111.06 18.56, 115.56 13.39, 126.91 0.34 M112.21 23.34 C120.06 14.31, 127.91 5.29, 132.55 -0.05 M112.21 23.34 C118.1 16.57, 123.99 9.8, 132.55 -0.05 M117.2 23.7 C121.85 18.35, 126.5 13, 137.54 0.31 M117.2 23.7 C123.79 16.12, 130.38 8.54, 137.54 0.31 M122.84 23.31 C128.81 16.44, 134.78 9.57, 143.18 -0.09 M122.84 23.31 C129.25 15.94, 135.65 8.57, 143.18 -0.09 M127.83 23.67 C133.11 17.6, 138.39 11.52, 148.17 0.27 M127.83 23.67 C135.24 15.14, 142.65 6.61, 148.17 0.27 M133.47 23.27 C141.2 14.38, 148.93 5.49, 153.81 -0.12 M133.47 23.27 C140.38 15.33, 147.29 7.38, 153.81 -0.12 M138.46 23.63 C146.17 14.76, 153.89 5.88, 158.8 0.24 M138.46 23.63 C143.05 18.35, 147.64 13.07, 158.8 0.24 M144.1 23.24 C149.17 17.4, 154.25 11.57, 164.44 -0.16 M144.1 23.24 C151.81 14.37, 159.51 5.51, 164.44 -0.16 M149.09 23.6 C156.15 15.47, 163.22 7.35, 169.43 0.2 M149.09 23.6 C154.78 17.05, 160.48 10.5, 169.43 0.2 M154.07 23.96 C162.29 14.5, 170.51 5.05, 175.07 -0.19 M154.07 23.96 C162.2 14.61, 170.32 5.27, 175.07 -0.19 M159.72 23.56 C167.02 15.17, 174.31 6.77, 180.06 0.17 M159.72 23.56 C165.59 16.81, 171.46 10.06, 180.06 0.17 M164.7 23.92 C170.62 17.12, 176.54 10.31, 185.7 -0.23 M164.7 23.92 C172.2 15.3, 179.71 6.67, 185.7 -0.23 M170.35 23.53 C177.37 15.45, 184.39 7.38, 190.69 0.13 M170.35 23.53 C176.49 16.46, 182.63 9.4, 190.69 0.13 M175.33 23.89 C181.26 17.07, 187.19 10.25, 196.33 -0.26 M175.33 23.89 C180 18.52, 184.66 13.16, 196.33 -0.26 M180.98 23.5 C186.54 17.1, 192.1 10.71, 201.32 0.1 M180.98 23.5 C188.3 15.08, 195.61 6.66, 201.32 0.1 M185.96 23.86 C193.12 15.63, 200.27 7.4, 206.96 -0.3 M185.96 23.86 C193.38 15.32, 200.8 6.79, 206.96 -0.3 M191.61 23.46 C196.62 17.69, 201.64 11.93, 211.95 0.06 M191.61 23.46 C199.55 14.33, 207.48 5.2, 211.95 0.06 M196.59 23.82 C202.68 16.82, 208.77 9.81, 217.59 -0.33 M196.59 23.82 C202.08 17.52, 207.56 11.21, 217.59 -0.33 M202.24 23.43 C206.38 18.66, 210.53 13.89, 222.58 0.03 M202.24 23.43 C208.57 16.14, 214.9 8.86, 222.58 0.03 M207.23 23.79 C214.58 15.32, 221.94 6.86, 228.22 -0.36 M207.23 23.79 C213.42 16.66, 219.62 9.52, 228.22 -0.36 M212.87 23.39 C217.34 18.24, 221.82 13.1, 233.21 0 M212.87 23.39 C219.57 15.69, 226.26 7.98, 233.21 0 M217.86 23.75 C222.47 18.44, 227.08 13.13, 238.19 0.36 M217.86 23.75 C224.86 15.69, 231.87 7.63, 238.19 0.36 M223.5 23.36 C227.69 18.53, 231.89 13.71, 243.84 -0.04 M223.5 23.36 C228.38 17.74, 233.27 12.12, 243.84 -0.04 M228.49 23.72 C232.78 18.78, 237.07 13.84, 248.82 0.32 M228.49 23.72 C235.33 15.84, 242.18 7.97, 248.82 0.32 M234.13 23.32 C238.38 18.43, 242.64 13.53, 254.47 -0.07 M234.13 23.32 C240.81 15.63, 247.5 7.94, 254.47 -0.07 M239.12 23.68 C244.81 17.13, 250.51 10.57, 259.45 0.29 M239.12 23.68 C246 15.77, 252.88 7.85, 259.45 0.29 M244.76 23.29 C251.1 15.99, 257.44 8.7, 265.1 -0.11 M244.76 23.29 C250.22 17.01, 255.68 10.72, 265.1 -0.11 M249.75 23.65 C257.83 14.35, 265.91 5.05, 270.08 0.25 M249.75 23.65 C254.94 17.67, 260.14 11.69, 270.08 0.25 M255.39 23.25 C262.15 15.47, 268.92 7.69, 275.73 -0.14 M255.39 23.25 C259.92 18.04, 264.45 12.83, 275.73 -0.14 M260.38 23.61 C264.41 18.97, 268.45 14.33, 279.4 1.73 M260.38 23.61 C266.72 16.32, 273.06 9.02, 279.4 1.73 M265.36 23.97 C269.86 18.8, 274.36 13.63, 279.14 8.13 M265.36 23.97 C270.09 18.53, 274.83 13.09, 279.14 8.13 M271.01 23.58 C273.83 20.33, 276.66 17.07, 278.88 14.52 M271.01 23.58 C273.02 21.26, 275.03 18.95, 278.88 14.52 M275.99 23.94 C276.92 22.87, 277.85 21.8, 279.27 20.17 M275.99 23.94 C276.88 22.91, 277.77 21.89, 279.27 20.17" stroke="#868e96" stroke-width="0.5" fill="none"></path><path d="M0 0 C67.27 0, 134.53 0, 278.52 0 M0 0 C105.86 0, 211.72 0, 278.52 0 M278.52 0 C278.52 5.16, 278.52 10.33, 278.52 23 M278.52 0 C278.52 6.38, 278.52 12.77, 278.52 23 M278.52 23 C216.21 23, 153.89 23, 0 23 M278.52 23 C216.77 23, 155.02 23, 0 23 M0 23 C0 15.88, 0 8.76, 0 0 M0 23 C0 17.46, 0 11.93, 0 0" stroke="#000000" stroke-width="1" fill="none"></path></g><g stroke-linecap="round"><g transform="translate(92.93481513575193 124.03063025841357) rotate(0 139.9380229704069 0)"><path d="M0 0 C46.65 0, 233.23 0, 279.88 0 M0 0 C46.65 0, 233.23 0, 279.88 0" stroke="#000000" stroke-width="1" fill="none"></path></g></g><mask></mask><g stroke-linecap="round"><g transform="translate(91.21803824379731 172.03063025841357) rotate(0 142.3348729548461 0)"><path d="M0 0 C47.44 0, 237.22 0, 284.67 0 M0 0 C47.44 0, 237.22 0, 284.67 0" stroke="#000000" stroke-width="1" fill="none"></path></g></g><mask></mask><g stroke-linecap="round" transform="translate(96.35337119802398 136.03063025841402) rotate(0 28.96761133603229 9.878542510121463)"><path d="M0 0 C0 0, 0 0, 0 0 M0 0 C0 0, 0 0, 0 0 M-0.26 6.4 C1.59 4.27, 3.44 2.14, 4.99 0.36 M-0.26 6.4 C1.56 4.3, 3.39 2.2, 4.99 0.36 M0.13 12.04 C2.44 9.38, 4.76 6.72, 10.63 -0.03 M0.13 12.04 C2.54 9.27, 4.95 6.5, 10.63 -0.03 M-0.13 18.44 C3.92 13.78, 7.97 9.13, 15.62 0.33 M-0.13 18.44 C4.7 12.88, 9.53 7.33, 15.62 0.33 M4.2 19.55 C7.82 15.39, 11.44 11.23, 21.26 -0.07 M4.2 19.55 C8.74 14.34, 13.27 9.12, 21.26 -0.07 M9.19 19.91 C13.01 15.52, 16.84 11.12, 26.25 0.29 M9.19 19.91 C14.19 14.16, 19.19 8.4, 26.25 0.29 M14.83 19.52 C18.56 15.23, 22.3 10.93, 31.89 -0.1 M14.83 19.52 C20.42 13.1, 26 6.67, 31.89 -0.1 M19.82 19.88 C23.32 15.85, 26.82 11.83, 36.88 0.26 M19.82 19.88 C23.44 15.71, 27.06 11.55, 36.88 0.26 M25.46 19.48 C30.11 14.14, 34.76 8.79, 42.52 -0.14 M25.46 19.48 C31.45 12.6, 37.43 5.71, 42.52 -0.14 M30.45 19.84 C35.35 14.2, 40.26 8.56, 47.51 0.22 M30.45 19.84 C34.85 14.78, 39.25 9.72, 47.51 0.22 M36.09 19.45 C41.06 13.74, 46.02 8.03, 53.15 -0.17 M36.09 19.45 C39.72 15.28, 43.35 11.1, 53.15 -0.17 M41.08 19.81 C47.81 12.06, 54.55 4.32, 58.14 0.19 M41.08 19.81 C44.72 15.63, 48.35 11.44, 58.14 0.19 M46.72 19.42 C50.94 14.56, 55.16 9.71, 57.88 6.59 M46.72 19.42 C49.27 16.49, 51.81 13.56, 57.88 6.59 M51.71 19.78 C54.24 16.86, 56.78 13.95, 58.27 12.23 M51.71 19.78 C54.01 17.13, 56.31 14.48, 58.27 12.23 M56.7 20.14 C57.12 19.65, 57.55 19.16, 58.01 18.63 M56.7 20.14 C57.03 19.76, 57.36 19.38, 58.01 18.63" stroke="#228be6" stroke-width="0.5" fill="none"></path><path d="M0 0 C11.77 0, 23.54 0, 57.94 0 M0 0 C16.49 0, 32.97 0, 57.94 0 M57.94 0 C57.94 4.02, 57.94 8.05, 57.94 19.76 M57.94 0 C57.94 6.63, 57.94 13.26, 57.94 19.76 M57.94 19.76 C35.75 19.76, 13.57 19.76, 0 19.76 M57.94 19.76 C36.02 19.76, 14.11 19.76, 0 19.76 M0 19.76 C0 11.96, 0 4.17, 0 0 M0 19.76 C0 13.84, 0 7.93, 0 0" stroke="#1971c2" stroke-width="1" fill="none"></path></g><g stroke-linecap="round" transform="translate(222.09021330328733 136.03063025841402) rotate(0 47.65182186234813 9.615384615384642)"><path d="M0 0 C0 0, 0 0, 0 0 M0 0 C0 0, 0 0, 0 0 M-0.26 6.4 C1.7 4.14, 3.66 1.89, 4.99 0.36 M-0.26 6.4 C0.81 5.17, 1.88 3.93, 4.99 0.36 M0.13 12.04 C4.14 7.43, 8.14 2.83, 10.63 -0.03 M0.13 12.04 C3.69 7.94, 7.26 3.85, 10.63 -0.03 M-0.13 18.44 C5.43 12.04, 11 5.64, 15.62 0.33 M-0.13 18.44 C5.08 12.45, 10.29 6.46, 15.62 0.33 M4.2 19.55 C9.25 13.75, 14.29 7.94, 21.26 -0.07 M4.2 19.55 C10.27 12.57, 16.34 5.59, 21.26 -0.07 M9.85 19.16 C15.32 12.86, 20.8 6.55, 26.25 0.29 M9.85 19.16 C14.98 13.25, 20.11 7.35, 26.25 0.29 M14.83 19.52 C18.38 15.44, 21.92 11.37, 31.89 -0.1 M14.83 19.52 C21.23 12.16, 27.63 4.79, 31.89 -0.1 M20.48 19.12 C24.87 14.07, 29.27 9.01, 36.88 0.26 M20.48 19.12 C24.46 14.54, 28.44 9.96, 36.88 0.26 M25.46 19.48 C31.86 12.12, 38.26 4.76, 42.52 -0.14 M25.46 19.48 C30.52 13.67, 35.58 7.85, 42.52 -0.14 M30.45 19.84 C35.46 14.08, 40.47 8.32, 47.51 0.22 M30.45 19.84 C34.73 14.92, 39.01 9.99, 47.51 0.22 M36.09 19.45 C42.77 11.77, 49.45 4.08, 53.15 -0.17 M36.09 19.45 C41.34 13.41, 46.59 7.38, 53.15 -0.17 M41.08 19.81 C45.09 15.2, 49.1 10.58, 58.14 0.19 M41.08 19.81 C44.62 15.74, 48.16 11.66, 58.14 0.19 M46.72 19.42 C51.62 13.79, 56.51 8.16, 63.78 -0.21 M46.72 19.42 C53.3 11.85, 59.87 4.29, 63.78 -0.21 M51.71 19.78 C56.87 13.84, 62.03 7.91, 68.77 0.15 M51.71 19.78 C55.49 15.43, 59.27 11.08, 68.77 0.15 M57.35 19.38 C61.22 14.93, 65.09 10.48, 74.41 -0.24 M57.35 19.38 C64.11 11.61, 70.86 3.84, 74.41 -0.24 M62.34 19.74 C69.02 12.06, 75.7 4.37, 79.4 0.12 M62.34 19.74 C68.16 13.05, 73.97 6.36, 79.4 0.12 M67.98 19.35 C71.61 15.18, 75.23 11.01, 85.04 -0.28 M67.98 19.35 C74.71 11.6, 81.44 3.86, 85.04 -0.28 M72.97 19.71 C79.53 12.16, 86.1 4.61, 90.03 0.08 M72.97 19.71 C77.29 14.74, 81.6 9.78, 90.03 0.08 M78.61 19.31 C85.12 11.82, 91.63 4.34, 95.67 -0.31 M78.61 19.31 C84.16 12.93, 89.7 6.56, 95.67 -0.31 M83.6 19.67 C86.55 16.28, 89.5 12.88, 95.41 6.09 M83.6 19.67 C88.13 14.46, 92.67 9.24, 95.41 6.09 M89.24 19.28 C91.06 17.19, 92.88 15.1, 95.15 12.49 M89.24 19.28 C91.14 17.1, 93.03 14.92, 95.15 12.49 M94.23 19.64 C94.68 19.12, 95.12 18.61, 95.54 18.13 M94.23 19.64 C94.75 19.04, 95.28 18.43, 95.54 18.13" stroke="#228be6" stroke-width="0.5" fill="none"></path><path d="M0 0 C36.77 0, 73.53 0, 95.3 0 M0 0 C33.85 0, 67.71 0, 95.3 0 M95.3 0 C95.3 6.49, 95.3 12.97, 95.3 19.23 M95.3 0 C95.3 6.66, 95.3 13.31, 95.3 19.23 M95.3 19.23 C57.71 19.23, 20.11 19.23, 0 19.23 M95.3 19.23 C60.5 19.23, 25.7 19.23, 0 19.23 M0 19.23 C0 12.92, 0 6.6, 0 0 M0 19.23 C0 11.91, 0 4.6, 0 0" stroke="#e03131" stroke-width="1" fill="none"></path></g><g stroke-linecap="round" transform="translate(325.5112659348656 136.03063025841402) rotate(0 24.42656378665299 9.352226720647707)"><path d="M0 0 C0 0, 0 0, 0 0 M0 0 C0 0, 0 0, 0 0 M-0.26 6.4 C1.01 4.94, 2.28 3.48, 4.99 0.36 M-0.26 6.4 C0.86 5.11, 1.97 3.83, 4.99 0.36 M0.13 12.04 C2.49 9.33, 4.85 6.61, 10.63 -0.03 M0.13 12.04 C3.25 8.45, 6.37 4.87, 10.63 -0.03 M-0.13 18.44 C3.88 13.83, 7.88 9.23, 15.62 0.33 M-0.13 18.44 C4.98 12.56, 10.09 6.69, 15.62 0.33 M4.2 19.55 C10.04 12.84, 15.88 6.12, 21.26 -0.07 M4.2 19.55 C8.74 14.33, 13.28 9.11, 21.26 -0.07 M9.85 19.16 C13.89 14.51, 17.93 9.86, 26.25 0.29 M9.85 19.16 C15.36 12.82, 20.87 6.48, 26.25 0.29 M14.83 19.52 C19.4 14.26, 23.97 9.01, 31.89 -0.1 M14.83 19.52 C19 14.72, 23.18 9.92, 31.89 -0.1 M20.48 19.12 C26.16 12.59, 31.84 6.05, 36.88 0.26 M20.48 19.12 C26.24 12.5, 32 5.87, 36.88 0.26 M25.46 19.48 C29.9 14.38, 34.33 9.28, 42.52 -0.14 M25.46 19.48 C30.89 13.24, 36.32 7, 42.52 -0.14 M31.11 19.09 C36.33 13.08, 41.56 7.07, 47.51 0.22 M31.11 19.09 C35.42 14.13, 39.73 9.17, 47.51 0.22 M36.09 19.45 C40.86 13.96, 45.63 8.48, 49.21 4.36 M36.09 19.45 C38.87 16.26, 41.64 13.07, 49.21 4.36 M41.74 19.06 C43.63 16.88, 45.53 14.7, 48.95 10.75 M41.74 19.06 C43.56 16.96, 45.38 14.87, 48.95 10.75 M46.72 19.42 C47.33 18.72, 47.94 18.02, 48.69 17.15 M46.72 19.42 C47.49 18.54, 48.25 17.66, 48.69 17.15" stroke="#1971c2" stroke-width="0.5" fill="none"></path><path d="M0 0 C10.97 0, 21.93 0, 48.85 0 M0 0 C13.56 0, 27.12 0, 48.85 0 M48.85 0 C48.85 4.18, 48.85 8.37, 48.85 18.7 M48.85 0 C48.85 4.15, 48.85 8.29, 48.85 18.7 M48.85 18.7 C33.73 18.7, 18.6 18.7, 0 18.7 M48.85 18.7 C37.09 18.7, 25.33 18.7, 0 18.7 M0 18.7 C0 14.64, 0 10.58, 0 0 M0 18.7 C0 11.46, 0 4.22, 0 0" stroke="#e03131" stroke-width="1" fill="none"></path></g><g stroke-linecap="round" transform="translate(174.612354139565 136.03063025841402) rotate(0 10.725795317176903 9.615384615384642)"><path d="M0 0 C0 0, 0 0, 0 0 M0 0 C0 0, 0 0, 0 0 M-0.26 6.4 C1.21 4.71, 2.68 3.02, 4.99 0.36 M-0.26 6.4 C1.71 4.13, 3.69 1.85, 4.99 0.36 M0.13 12.04 C3.18 8.54, 6.22 5.04, 10.63 -0.03 M0.13 12.04 C2.6 9.21, 5.06 6.37, 10.63 -0.03 M-0.13 18.44 C5.53 11.93, 11.19 5.41, 15.62 0.33 M-0.13 18.44 C4.42 13.21, 8.97 7.97, 15.62 0.33 M4.2 19.55 C8.06 15.12, 11.91 10.68, 21.26 -0.07 M4.2 19.55 C10.54 12.26, 16.88 4.97, 21.26 -0.07 M9.85 19.16 C14.81 13.45, 19.77 7.74, 22.31 4.82 M9.85 19.16 C14 14.38, 18.16 9.6, 22.31 4.82 M14.83 19.52 C17.37 16.6, 19.92 13.67, 22.05 11.22 M14.83 19.52 C16.97 17.06, 19.11 14.59, 22.05 11.22 M20.48 19.12 C20.78 18.78, 21.08 18.43, 21.79 17.61 M20.48 19.12 C20.75 18.81, 21.02 18.5, 21.79 17.61" stroke="#1971c2" stroke-width="0.5" fill="none"></path><path d="M0 0 C5.67 0, 11.35 0, 21.45 0 M0 0 C5.3 0, 10.6 0, 21.45 0 M21.45 0 C21.45 4.6, 21.45 9.2, 21.45 19.23 M21.45 0 C21.45 5.84, 21.45 11.68, 21.45 19.23 M21.45 19.23 C15.89 19.23, 10.33 19.23, 0 19.23 M21.45 19.23 C17.07 19.23, 12.69 19.23, 0 19.23 M0 19.23 C0 14.22, 0 9.21, 0 0 M0 19.23 C0 11.77, 0 4.32, 0 0" stroke="#1971c2" stroke-width="1" fill="none"></path></g><g stroke-linecap="round"><g transform="translate(92.36255617176698 192.4736237375796) rotate(0 140.12160798627576 0)"><path d="M0 0 C46.71 0, 233.54 0, 280.24 0 M0 0 C46.71 0, 233.54 0, 280.24 0" stroke="#000000" stroke-width="1" fill="none"></path></g></g><mask></mask><g stroke-linecap="round"><g transform="translate(91.79029720778226 240.4736237375796) rotate(0 141.9461990067299 0)"><path d="M0 0 C47.32 0, 236.58 0, 283.89 0 M0 0 C47.32 0, 236.58 0, 283.89 0" stroke="#000000" stroke-width="1" fill="none"></path></g></g><mask></mask><g stroke-linecap="round" transform="translate(96.14828226577674 204.47362373758006) rotate(0 6.263752504347508 9.878542510121463)"><path d="M0 0 C0 0, 0 0, 0 0 M0 0 C0 0, 0 0, 0 0 M-0.26 6.4 C1.09 4.85, 2.44 3.29, 4.99 0.36 M-0.26 6.4 C1.35 4.55, 2.96 2.69, 4.99 0.36 M0.13 12.04 C2.36 9.48, 4.58 6.92, 10.63 -0.03 M0.13 12.04 C2.92 8.83, 5.72 5.62, 10.63 -0.03 M-0.13 18.44 C2.81 15.06, 5.75 11.67, 12.99 3.34 M-0.13 18.44 C3.72 14.01, 7.57 9.59, 12.99 3.34 M4.2 19.55 C6.07 17.41, 7.93 15.26, 12.73 9.74 M4.2 19.55 C6.99 16.34, 9.79 13.13, 12.73 9.74 M9.19 19.91 C10 18.98, 10.8 18.06, 13.13 15.39 M9.19 19.91 C10.03 18.95, 10.86 17.99, 13.13 15.39" stroke="#228be6" stroke-width="0.5" fill="none"></path><path d="M0 0 C4.8 0, 9.59 0, 12.53 0 M0 0 C4.74 0, 9.48 0, 12.53 0 M12.53 0 C12.53 7.79, 12.53 15.58, 12.53 19.76 M12.53 0 C12.53 5.92, 12.53 11.83, 12.53 19.76 M12.53 19.76 C7.55 19.76, 2.58 19.76, 0 19.76 M12.53 19.76 C8.52 19.76, 4.51 19.76, 0 19.76 M0 19.76 C0 12.8, 0 5.84, 0 0 M0 19.76 C0 12.89, 0 6.03, 0 0" stroke="#1971c2" stroke-width="1" fill="none"></path></g><g stroke-linecap="round" transform="translate(221.8851243710401 204.47362373758006) rotate(0 30.38136514422888 9.615384615384642)"><path d="M0 0 C0 0, 0 0, 0 0 M0 0 C0 0, 0 0, 0 0 M-0.26 6.4 C1.59 4.26, 3.45 2.13, 4.99 0.36 M-0.26 6.4 C1.47 4.4, 3.21 2.4, 4.99 0.36 M0.13 12.04 C3.24 8.47, 6.34 4.9, 10.63 -0.03 M0.13 12.04 C3.87 7.75, 7.6 3.45, 10.63 -0.03 M-0.13 18.44 C5.13 12.39, 10.39 6.34, 15.62 0.33 M-0.13 18.44 C4.8 12.77, 9.73 7.1, 15.62 0.33 M4.2 19.55 C7.75 15.48, 11.29 11.4, 21.26 -0.07 M4.2 19.55 C10.6 12.19, 17 4.83, 21.26 -0.07 M9.85 19.16 C14.24 14.1, 18.64 9.04, 26.25 0.29 M9.85 19.16 C13.83 14.58, 17.81 10, 26.25 0.29 M14.83 19.52 C21.23 12.16, 27.63 4.8, 31.89 -0.1 M14.83 19.52 C19.89 13.7, 24.95 7.88, 31.89 -0.1 M20.48 19.12 C25.29 13.58, 30.11 8.04, 36.88 0.26 M20.48 19.12 C24.59 14.39, 28.71 9.65, 36.88 0.26 M25.46 19.48 C32.14 11.8, 38.82 4.12, 42.52 -0.14 M25.46 19.48 C30.71 13.45, 35.96 7.41, 42.52 -0.14 M30.45 19.84 C34.46 15.23, 38.47 10.62, 47.51 0.22 M30.45 19.84 C33.99 15.77, 37.53 11.7, 47.51 0.22 M36.09 19.45 C40.99 13.82, 45.88 8.19, 53.15 -0.17 M36.09 19.45 C42.67 11.89, 49.24 4.32, 53.15 -0.17 M41.08 19.81 C46.24 13.88, 51.4 7.94, 58.14 0.19 M41.08 19.81 C44.86 15.46, 48.64 11.11, 58.14 0.19 M46.72 19.42 C49.99 15.65, 53.27 11.89, 61.16 2.81 M46.72 19.42 C52.44 12.84, 58.16 6.26, 61.16 2.81 M51.71 19.78 C55.31 15.64, 58.9 11.5, 60.89 9.21 M51.71 19.78 C54.84 16.17, 57.97 12.57, 60.89 9.21 M57.35 19.38 C58.05 18.58, 58.75 17.78, 60.63 15.61 M57.35 19.38 C58.65 17.89, 59.94 16.4, 60.63 15.61" stroke="#228be6" stroke-width="0.5" fill="none"></path><path d="M0 0 C23.97 0, 47.94 0, 60.76 0 M0 0 C22.19 0, 44.38 0, 60.76 0 M60.76 0 C60.76 6.31, 60.76 12.63, 60.76 19.23 M60.76 0 C60.76 7.32, 60.76 14.64, 60.76 19.23 M60.76 19.23 C45.99 19.23, 31.22 19.23, 0 19.23 M60.76 19.23 C47.64 19.23, 34.51 19.23, 0 19.23 M0 19.23 C0 12.05, 0 4.87, 0 0 M0 19.23 C0 15.31, 0 11.38, 0 0" stroke="#e03131" stroke-width="1" fill="none"></path></g><g stroke-linecap="round" transform="translate(325.3061770026193 204.47362373758006) rotate(0 14.141909785975258 9.352226720647707)"><path d="M0 0 C0 0, 0 0, 0 0 M0 0 C0 0, 0 0, 0 0 M-0.26 6.4 C1.07 4.86, 2.41 3.33, 4.99 0.36 M-0.26 6.4 C1.44 4.44, 3.14 2.48, 4.99 0.36 M0.13 12.04 C3.73 7.91, 7.32 3.78, 10.63 -0.03 M0.13 12.04 C2.93 8.83, 5.72 5.62, 10.63 -0.03 M-0.13 18.44 C3.75 13.97, 7.63 9.51, 15.62 0.33 M-0.13 18.44 C5.16 12.35, 10.45 6.27, 15.62 0.33 M4.2 19.55 C8.77 14.3, 13.34 9.05, 21.26 -0.07 M4.2 19.55 C8.37 14.75, 12.55 9.96, 21.26 -0.07 M9.85 19.16 C15.53 12.62, 21.21 6.08, 26.25 0.29 M9.85 19.16 C15.61 12.53, 21.37 5.9, 26.25 0.29 M14.83 19.52 C18.41 15.4, 22 11.28, 28.61 3.67 M14.83 19.52 C19.22 14.48, 23.6 9.43, 28.61 3.67 M20.48 19.12 C23.19 16, 25.91 12.87, 29 9.31 M20.48 19.12 C22.72 16.55, 24.96 13.97, 29 9.31 M25.46 19.48 C26.65 18.11, 27.85 16.74, 28.74 15.71 M25.46 19.48 C26.16 18.69, 26.85 17.89, 28.74 15.71" stroke="#1971c2" stroke-width="0.5" fill="none"></path><path d="M0 0 C8.76 0, 17.51 0, 28.28 0 M0 0 C6.81 0, 13.62 0, 28.28 0 M28.28 0 C28.28 4.06, 28.28 8.12, 28.28 18.7 M28.28 0 C28.28 7.24, 28.28 14.49, 28.28 18.7 M28.28 18.7 C18.59 18.7, 8.89 18.7, 0 18.7 M28.28 18.7 C17.22 18.7, 6.16 18.7, 0 18.7 M0 18.7 C0 14.18, 0 9.66, 0 0 M0 18.7 C0 14.72, 0 10.74, 0 0" stroke="#1971c2" stroke-width="1" fill="none"></path></g><g transform="translate(216.25602746451227 254.7152663337788) rotate(0 17.48046875 9)"><text x="17.48046875" y="0" font-family="Times New Roman" font-size="16px" fill="#495057" text-anchor="middle" style="white-space: pre;" direction="ltr" dominant-baseline="text-before-edge">Time</text></g><g stroke-linecap="round" transform="translate(174.40726520731778 204.47362373758006) rotate(0 21.39854946882349 9.615384615384642)"><path d="M0 0 C0 0, 0 0, 0 0 M0 0 C0 0, 0 0, 0 0 M-0.26 6.4 C1.79 4.03, 3.85 1.67, 4.99 0.36 M-0.26 6.4 C0.96 4.99, 2.18 3.59, 4.99 0.36 M0.13 12.04 C2.54 9.27, 4.96 6.49, 10.63 -0.03 M0.13 12.04 C3.76 7.86, 7.4 3.69, 10.63 -0.03 M-0.13 18.44 C3.32 14.47, 6.76 10.51, 15.62 0.33 M-0.13 18.44 C5.98 11.41, 12.08 4.39, 15.62 0.33 M4.2 19.55 C8.02 15.16, 11.85 10.76, 21.26 -0.07 M4.2 19.55 C9.31 13.68, 14.41 7.81, 21.26 -0.07 M9.85 19.16 C13.69 14.74, 17.54 10.31, 26.25 0.29 M9.85 19.16 C13.72 14.7, 17.6 10.24, 26.25 0.29 M14.83 19.52 C19.27 14.41, 23.71 9.31, 31.89 -0.1 M14.83 19.52 C20.35 13.17, 25.87 6.83, 31.89 -0.1 M20.48 19.12 C25.88 12.91, 31.28 6.69, 36.88 0.26 M20.48 19.12 C25.49 13.35, 30.51 7.58, 36.88 0.26 M25.46 19.48 C32.03 11.93, 38.6 4.37, 42.52 -0.14 M25.46 19.48 C30.64 13.53, 35.81 7.58, 42.52 -0.14 M30.45 19.84 C34.14 15.6, 37.83 11.35, 43.57 4.75 M30.45 19.84 C33.9 15.87, 37.35 11.9, 43.57 4.75 M36.09 19.45 C38.12 17.11, 40.15 14.78, 43.31 11.15 M36.09 19.45 C38.35 16.85, 40.61 14.26, 43.31 11.15 M41.08 19.81 C41.58 19.24, 42.08 18.66, 43.05 17.55 M41.08 19.81 C41.5 19.33, 41.92 18.84, 43.05 17.55" stroke="#1971c2" stroke-width="0.5" fill="none"></path><path d="M0 0 C11.47 0, 22.95 0, 42.8 0 M0 0 C17.11 0, 34.23 0, 42.8 0 M42.8 0 C42.8 7.02, 42.8 14.04, 42.8 19.23 M42.8 0 C42.8 7.42, 42.8 14.83, 42.8 19.23 M42.8 19.23 C27.44 19.23, 12.09 19.23, 0 19.23 M42.8 19.23 C31.74 19.23, 20.68 19.23, 0 19.23 M0 19.23 C0 14.49, 0 9.74, 0 0 M0 19.23 C0 13.81, 0 8.4, 0 0" stroke="#1971c2" stroke-width="1" fill="none"></path></g><g stroke-opacity="0.5" fill-opacity="0.5" stroke-linecap="round" transform="translate(219.87283202071376 110.27679041855345) rotate(0 84.02585179235973 69.39635081065387)"><path d="M7.86 8.16 C7.86 8.16, 7.86 8.16, 7.86 8.16 M7.86 8.16 C7.86 8.16, 7.86 8.16, 7.86 8.16 M1.43 27.75 C6.34 22.1, 11.25 16.46, 25.05 0.58 M1.43 27.75 C10.3 17.55, 19.16 7.36, 25.05 0.58 M0.91 40.54 C10.41 29.62, 19.91 18.69, 36.34 -0.21 M0.91 40.54 C9.51 30.65, 18.11 20.75, 36.34 -0.21 M1.04 52.58 C18.27 32.77, 35.49 12.95, 46.97 -0.25 M1.04 52.58 C14.66 36.92, 28.28 21.25, 46.97 -0.25 M1.18 64.62 C17.75 45.56, 34.33 26.49, 57.6 -0.28 M1.18 64.62 C15.34 48.33, 29.5 32.04, 57.6 -0.28 M0.65 77.42 C26.86 47.28, 53.06 17.13, 67.57 0.44 M0.65 77.42 C21.24 53.74, 41.83 30.06, 67.57 0.44 M0.79 89.46 C18.99 68.52, 37.19 47.58, 78.2 0.41 M0.79 89.46 C16.86 70.97, 32.94 52.48, 78.2 0.41 M0.92 101.5 C26.15 72.48, 51.37 43.47, 88.83 0.37 M0.92 101.5 C34.81 62.52, 68.69 23.54, 88.83 0.37 M0.4 114.3 C30.35 79.84, 60.31 45.38, 99.46 0.34 M0.4 114.3 C22.35 89.04, 44.31 63.79, 99.46 0.34 M3.16 123.32 C27.4 95.43, 51.64 67.55, 110.09 0.3 M3.16 123.32 C45.51 74.6, 87.86 25.88, 110.09 0.3 M7.88 130.08 C52.07 79.24, 96.26 28.41, 120.72 0.27 M7.88 130.08 C46.37 85.81, 84.85 41.53, 120.72 0.27 M13.92 135.33 C38.86 106.63, 63.81 77.94, 131.35 0.23 M13.92 135.33 C60.25 82.03, 106.58 28.73, 131.35 0.23 M21.92 138.31 C67.87 85.46, 113.81 32.61, 141.33 0.95 M21.92 138.31 C52.14 103.55, 82.36 68.79, 141.33 0.95 M31.9 139.03 C77.21 86.91, 122.52 34.78, 150.65 2.43 M31.9 139.03 C70.5 94.63, 109.1 50.22, 150.65 2.43 M42.53 139 C71.38 105.81, 100.22 72.62, 158 6.17 M42.53 139 C86.85 88.01, 131.17 37.02, 158 6.17 M53.16 138.96 C87.06 99.96, 120.96 60.96, 163.38 12.17 M53.16 138.96 C88.52 98.28, 123.89 57.6, 163.38 12.17 M63.79 138.93 C98.88 98.56, 133.97 58.19, 166.79 20.44 M63.79 138.93 C104.85 91.69, 145.92 44.45, 166.79 20.44 M74.42 138.89 C102.54 106.54, 130.67 74.18, 168.24 30.97 M74.42 138.89 C93.58 116.85, 112.74 94.81, 168.24 30.97 M85.05 138.86 C109.81 110.38, 134.56 81.9, 168.37 43.01 M85.05 138.86 C110.2 109.92, 135.35 80.99, 168.37 43.01 M95.68 138.82 C117.78 113.4, 139.88 87.97, 168.5 55.05 M95.68 138.82 C123.83 106.44, 151.97 74.07, 168.5 55.05 M106.31 138.79 C127.58 114.32, 148.86 89.84, 167.98 67.85 M106.31 138.79 C127.08 114.9, 147.85 91, 167.98 67.85 M116.94 138.75 C137.4 115.21, 157.87 91.67, 168.11 79.89 M116.94 138.75 C135.78 117.08, 154.62 95.41, 168.11 79.89 M127.57 138.72 C143.67 120.2, 159.77 101.68, 168.25 91.93 M127.57 138.72 C139.2 125.34, 150.83 111.96, 168.25 91.93 M138.2 138.69 C147.24 128.29, 156.28 117.89, 167.72 104.72 M138.2 138.69 C145.24 130.58, 152.28 122.48, 167.72 104.72 M150.14 137.14 C156.3 130.06, 162.45 122.98, 167.86 116.76 M150.14 137.14 C156.71 129.59, 163.28 122.03, 167.86 116.76" stroke="#ffc9c9" stroke-width="1" fill="none"></path><path d="M32 0 C69.12 0, 106.23 0, 136.05 0 M32 0 C53.7 0, 75.39 0, 136.05 0 M136.05 0 C157.39 0, 168.05 10.67, 168.05 32 M136.05 0 C157.39 0, 168.05 10.67, 168.05 32 M168.05 32 C168.05 51.49, 168.05 70.98, 168.05 106.79 M168.05 32 C168.05 61, 168.05 90, 168.05 106.79 M168.05 106.79 C168.05 128.13, 157.39 138.79, 136.05 138.79 M168.05 106.79 C168.05 128.13, 157.39 138.79, 136.05 138.79 M136.05 138.79 C113.14 138.79, 90.23 138.79, 32 138.79 M136.05 138.79 C112.18 138.79, 88.3 138.79, 32 138.79 M32 138.79 C10.67 138.79, 0 128.13, 0 106.79 M32 138.79 C10.67 138.79, 0 128.13, 0 106.79 M0 106.79 C0 88.38, 0 69.98, 0 32 M0 106.79 C0 77.47, 0 48.15, 0 32 M0 32 C0 10.67, 10.67 0, 32 0 M0 32 C0 10.67, 10.67 0, 32 0" stroke="#c92a2a" stroke-width="2" fill="none"></path></g><g transform="translate(266.18986400748736 255.33495695136207) rotate(0 43.5859375 18)"><text x="0" y="0" font-family="Times New Roman" font-size="16px" fill="#c92a2a" text-anchor="start" style="white-space: pre;" direction="ltr" dominant-baseline="text-before-edge">Service</text><text x="0" y="18" font-family="Times New Roman" font-size="16px" fill="#c92a2a" text-anchor="start" style="white-space: pre;" direction="ltr" dominant-baseline="text-before-edge">Degradation</text></g><g transform="translate(10 139.16436498760595) rotate(0 36.91015625 9)"><text x="36.91015625" y="0" font-family="Times New Roman" font-size="16px" fill="#495057" text-anchor="middle" style="white-space: pre;" direction="ltr" dominant-baseline="text-before-edge">LAN delay</text></g><g transform="translate(16.022514221701385 206.94229415613745) rotate(0 32.8984375 9)"><text x="32.8984375" y="0" font-family="Times New Roman" font-size="16px" fill="#495057" text-anchor="middle" style="white-space: pre;" direction="ltr" dominant-baseline="text-before-edge">LAN jitter</text></g><g stroke-opacity="0.5" fill-opacity="0.5" stroke-linecap="round" transform="translate(202.34737624311992 44.98894330849737) rotate(0 10.66698318571025 11.111440818448102)"><path d="M21.33 11.11 C21.33 11.75, 21.28 12.41, 21.17 13.04 C21.06 13.67, 20.9 14.31, 20.69 14.91 C20.48 15.52, 20.21 16.11, 19.9 16.67 C19.6 17.22, 19.24 17.76, 18.84 18.25 C18.44 18.75, 18 19.21, 17.52 19.62 C17.05 20.04, 16.54 20.41, 16 20.73 C15.47 21.06, 14.9 21.33, 14.32 21.55 C13.74 21.77, 13.13 21.94, 12.52 22.05 C11.91 22.17, 11.28 22.22, 10.67 22.22 C10.05 22.22, 9.42 22.17, 8.81 22.05 C8.21 21.94, 7.6 21.77, 7.02 21.55 C6.44 21.33, 5.87 21.06, 5.33 20.73 C4.8 20.41, 4.28 20.04, 3.81 19.62 C3.34 19.21, 2.89 18.75, 2.5 18.25 C2.1 17.76, 1.74 17.22, 1.43 16.67 C1.12 16.11, 0.85 15.52, 0.64 14.91 C0.43 14.31, 0.27 13.67, 0.16 13.04 C0.05 12.41, 0 11.75, 0 11.11 C0 10.47, 0.05 9.82, 0.16 9.18 C0.27 8.55, 0.43 7.92, 0.64 7.31 C0.85 6.71, 1.12 6.11, 1.43 5.56 C1.74 5, 2.1 4.46, 2.5 3.97 C2.89 3.48, 3.34 3.01, 3.81 2.6 C4.28 2.19, 4.8 1.81, 5.33 1.49 C5.87 1.17, 6.44 0.89, 7.02 0.67 C7.6 0.45, 8.21 0.28, 8.81 0.17 C9.42 0.06, 10.05 0, 10.67 0 C11.28 0, 11.91 0.06, 12.52 0.17 C13.13 0.28, 13.74 0.45, 14.32 0.67 C14.9 0.89, 15.47 1.17, 16 1.49 C16.54 1.81, 17.05 2.19, 17.52 2.6 C18 3.01, 18.44 3.48, 18.84 3.97 C19.24 4.46, 19.6 5, 19.9 5.56 C20.21 6.11, 20.48 6.71, 20.69 7.31 C20.9 7.92, 21.06 8.55, 21.17 9.18 C21.28 9.82, 21.31 10.79, 21.33 11.11 C21.36 11.43, 21.36 10.79, 21.33 11.11" stroke="none" stroke-width="0" fill="#da77f2"></path><path d="M21.33 11.11 C21.33 11.75, 21.28 12.41, 21.17 13.04 C21.06 13.67, 20.9 14.31, 20.69 14.91 C20.48 15.52, 20.21 16.11, 19.9 16.67 C19.6 17.22, 19.24 17.76, 18.84 18.25 C18.44 18.75, 18 19.21, 17.52 19.62 C17.05 20.04, 16.54 20.41, 16 20.73 C15.47 21.06, 14.9 21.33, 14.32 21.55 C13.74 21.77, 13.13 21.94, 12.52 22.05 C11.91 22.17, 11.28 22.22, 10.67 22.22 C10.05 22.22, 9.42 22.17, 8.81 22.05 C8.21 21.94, 7.6 21.77, 7.02 21.55 C6.44 21.33, 5.87 21.06, 5.33 20.73 C4.8 20.41, 4.28 20.04, 3.81 19.62 C3.34 19.21, 2.89 18.75, 2.5 18.25 C2.1 17.76, 1.74 17.22, 1.43 16.67 C1.12 16.11, 0.85 15.52, 0.64 14.91 C0.43 14.31, 0.27 13.67, 0.16 13.04 C0.05 12.41, 0 11.75, 0 11.11 C0 10.47, 0.05 9.82, 0.16 9.18 C0.27 8.55, 0.43 7.92, 0.64 7.31 C0.85 6.71, 1.12 6.11, 1.43 5.56 C1.74 5, 2.1 4.46, 2.5 3.97 C2.89 3.48, 3.34 3.01, 3.81 2.6 C4.28 2.19, 4.8 1.81, 5.33 1.49 C5.87 1.17, 6.44 0.89, 7.02 0.67 C7.6 0.45, 8.21 0.28, 8.81 0.17 C9.42 0.06, 10.05 0, 10.67 0 C11.28 0, 11.91 0.06, 12.52 0.17 C13.13 0.28, 13.74 0.45, 14.32 0.67 C14.9 0.89, 15.47 1.17, 16 1.49 C16.54 1.81, 17.05 2.19, 17.52 2.6 C18 3.01, 18.44 3.48, 18.84 3.97 C19.24 4.46, 19.6 5, 19.9 5.56 C20.21 6.11, 20.48 6.71, 20.69 7.31 C20.9 7.92, 21.06 8.55, 21.17 9.18 C21.28 9.82, 21.31 10.79, 21.33 11.11 C21.36 11.43, 21.36 10.79, 21.33 11.11" stroke="#9c36b5" stroke-width="1" fill="none"></path></g></svg>