<svg version="1.1" xmlns="http://www.w3.org/2000/svg" viewBox="0 0 506.3192393543952 316.2722728546123" width="506.3192393543952" height="316.2722728546123">
  <!-- svg-source:excalidraw -->
  
  <defs>
    <style class="style-fonts">
      @font-face {
        font-family: "Virgil";
        src: url("https://excalidraw.com/Virgil.woff2");
      }
      @font-face {
        font-family: "Cascadia";
        src: url("https://excalidraw.com/Cascadia.woff2");
      }
      @font-face {
        font-family: "Assistant";
        src: url("https://excalidraw.com/Assistant-Regular.woff2");
      }
    </style>
    
  </defs>
  <g stroke-linecap="round"><g transform="translate(166.09010547284947 54.32809062824231) rotate(0 -33.31205119798574 34.58728259925573)"><path d="M0 0 C-11.1 11.53, -55.52 57.65, -66.62 69.17" stroke="#767676" stroke-width="1.5" fill="none" stroke-dasharray="8 9"></path></g></g><mask></mask><g stroke-linecap="round"><g transform="translate(218.23008871237812 56.84292635296765) rotate(0 137.51679951565905 32.4778794068246)"><path d="M0 0 C45.84 10.83, 229.19 54.13, 275.03 64.96" stroke="#767676" stroke-width="1.5" fill="none" stroke-dasharray="8 9"></path></g></g><mask></mask><g stroke-linecap="round"><g transform="translate(103.10770089285688 55.59630408653857) rotate(0 194.64939157739286 0.2812859014654805)"><path d="M0 0 C64.88 0.09, 324.42 0.47, 389.3 0.56 M0 0 C64.88 0.09, 324.42 0.47, 389.3 0.56" stroke="#000000" stroke-width="1" fill="none"></path></g></g><mask></mask><g transform="translate(279.8132297390107 10) rotate(0 16.890625 9.200000000000003)"><text x="0" y="14.720312499999999" font-family="Times New Roman" font-size="16px" fill="#000000" text-anchor="start" style="white-space: pre;" direction="ltr" dominant-baseline="alphabetic">Flow</text></g><g stroke-linecap="round"><g transform="translate(99.39616243131832 196.74284480168285) rotate(0 195 0)"><path d="M0 0 C65 0, 325 0, 390 0" stroke="#000000" stroke-width="1.5" fill="none" stroke-dasharray="1.5 7"></path></g></g><mask></mask><g stroke-linecap="round"><g transform="translate(99.39616243131832 124.03063025841334) rotate(0 196.9230769230769 0)"><path d="M0 0 C65.64 0, 328.21 0, 393.85 0 M0 0 C65.64 0, 328.21 0, 393.85 0" stroke="#000000" stroke-width="1" fill="none"></path></g></g><mask></mask><g stroke-linecap="round"><g transform="translate(97.0884701236264 274.0306302584131) rotate(0 199.61538461538441 0)"><path d="M0 0 C66.54 0, 332.69 0, 399.23 0 M0 0 C66.54 0, 332.69 0, 399.23 0" stroke="#000000" stroke-width="1" fill="none"></path></g></g><mask></mask><g stroke-linecap="round"><g transform="translate(102.55000858516496 269.46101121543586) rotate(0 0 -71.56134432466519)"><path d="M0 0 C0 -23.85, 0 -119.27, 0 -143.12 M0 0 C0 -23.85, 0 -119.27, 0 -143.12" stroke="#000000" stroke-width="1" fill="none"></path></g><g transform="translate(102.55000858516496 269.46101121543586) rotate(0 0 -71.56134432466519)"><path d="M0 -143.12 L6.34 -129.53 L-6.34 -129.53 L0 -143.12" stroke="none" stroke-width="0" fill="#000000" fill-rule="evenodd"></path><path d="M0 -143.12 C2.29 -138.22, 4.57 -133.31, 6.34 -129.53 M0 -143.12 C2.43 -137.91, 4.86 -132.7, 6.34 -129.53 M6.34 -129.53 C2.52 -129.53, -1.29 -129.53, -6.34 -129.53 M6.34 -129.53 C2.74 -129.53, -0.86 -129.53, -6.34 -129.53 M-6.34 -129.53 C-4.3 -133.91, -2.25 -138.29, 0 -143.12 M-6.34 -129.53 C-3.89 -134.78, -1.45 -140.02, 0 -143.12 M0 -143.12 C0 -143.12, 0 -143.12, 0 -143.12 M0 -143.12 C0 -143.12, 0 -143.12, 0 -143.12" stroke="#000000" stroke-width="1" fill="none"></path></g></g><mask></mask><g stroke-linecap="round"><g transform="translate(170.9346239697793 130.95370718149024) rotate(0 0 70.1923076923076)"><path d="M0 0 C0 23.4, 0 116.99, 0 140.38 M0 0 C0 23.4, 0 116.99, 0 140.38" stroke="#000000" stroke-width="1" fill="none"></path></g><g transform="translate(170.9346239697793 130.95370718149024) rotate(0 0 70.1923076923076)"><path d="M0 140.38 L-6.34 126.79 L6.34 126.79 L0 140.38" stroke="none" stroke-width="0" fill="#000000" fill-rule="evenodd"></path><path d="M0 140.38 C-1.81 136.5, -3.63 132.61, -6.34 126.79 M0 140.38 C-1.46 137.26, -2.91 134.14, -6.34 126.79 M-6.34 126.79 C-2.58 126.79, 1.18 126.79, 6.34 126.79 M-6.34 126.79 C-2.65 126.79, 1.04 126.79, 6.34 126.79 M6.34 126.79 C3.84 132.15, 1.34 137.51, 0 140.38 M6.34 126.79 C4.58 130.56, 2.82 134.33, 0 140.38 M0 140.38 C0 140.38, 0 140.38, 0 140.38 M0 140.38 C0 140.38, 0 140.38, 0 140.38" stroke="#000000" stroke-width="1" fill="none"></path></g></g><mask></mask><g stroke-linecap="round"><g transform="translate(214.01154704670307 129.2229379507212) rotate(0 0 70.1923076923076)"><path d="M0 0 C0 23.4, 0 116.99, 0 140.38 M0 0 C0 23.4, 0 116.99, 0 140.38" stroke="#000000" stroke-width="1" fill="none"></path></g><g transform="translate(214.01154704670307 129.2229379507212) rotate(0 0 70.1923076923076)"><path d="M0 140.38 L-6.34 126.79 L6.34 126.79 L0 140.38" stroke="none" stroke-width="0" fill="#000000" fill-rule="evenodd"></path><path d="M0 140.38 C-2.44 135.16, -4.88 129.93, -6.34 126.79 M0 140.38 C-2.11 135.86, -4.22 131.34, -6.34 126.79 M-6.34 126.79 C-2.81 126.79, 0.73 126.79, 6.34 126.79 M-6.34 126.79 C-3.29 126.79, -0.24 126.79, 6.34 126.79 M6.34 126.79 C4.73 130.24, 3.12 133.7, 0 140.38 M6.34 126.79 C4.51 130.71, 2.68 134.63, 0 140.38 M0 140.38 C0 140.38, 0 140.38, 0 140.38 M0 140.38 C0 140.38, 0 140.38, 0 140.38" stroke="#000000" stroke-width="1" fill="none"></path></g></g><mask></mask><g stroke-linecap="round"><g transform="translate(277.85770089285734 269.2229379507212) rotate(0 0 -70.28846153846158)"><path d="M0 0 C0 -23.43, 0 -117.15, 0 -140.58 M0 0 C0 -23.43, 0 -117.15, 0 -140.58" stroke="#000000" stroke-width="1" fill="none"></path></g><g transform="translate(277.85770089285734 269.2229379507212) rotate(0 0 -70.28846153846158)"><path d="M0 -140.58 L6.34 -126.98 L-6.34 -126.98 L0 -140.58" stroke="none" stroke-width="0" fill="#000000" fill-rule="evenodd"></path><path d="M0 -140.58 C1.37 -137.63, 2.75 -134.68, 6.34 -126.98 M0 -140.58 C2.19 -135.88, 4.38 -131.17, 6.34 -126.98 M6.34 -126.98 C3.53 -126.98, 0.72 -126.98, -6.34 -126.98 M6.34 -126.98 C3.31 -126.98, 0.28 -126.98, -6.34 -126.98 M-6.34 -126.98 C-4.73 -130.42, -3.13 -133.87, 0 -140.58 M-6.34 -126.98 C-4.96 -129.95, -3.57 -132.92, 0 -140.58 M0 -140.58 C0 -140.58, 0 -140.58, 0 -140.58 M0 -140.58 C0 -140.58, 0 -140.58, 0 -140.58" stroke="#000000" stroke-width="1" fill="none"></path></g></g><mask></mask><g stroke-linecap="round"><g transform="translate(451.7038547390107 269.70370718149024) rotate(0 0 -70.28846153846158)"><path d="M0 0 C0 -23.43, 0 -117.15, 0 -140.58 M0 0 C0 -23.43, 0 -117.15, 0 -140.58" stroke="#000000" stroke-width="1" fill="none"></path></g><g transform="translate(451.7038547390107 269.70370718149024) rotate(0 0 -70.28846153846158)"><path d="M0 -140.58 L6.34 -126.98 L-6.34 -126.98 L0 -140.58" stroke="none" stroke-width="0" fill="#000000" fill-rule="evenodd"></path><path d="M0 -140.58 C2.53 -135.14, 5.07 -129.71, 6.34 -126.98 M0 -140.58 C1.56 -137.23, 3.12 -133.89, 6.34 -126.98 M6.34 -126.98 C2.61 -126.98, -1.12 -126.98, -6.34 -126.98 M6.34 -126.98 C1.51 -126.98, -3.32 -126.98, -6.34 -126.98 M-6.34 -126.98 C-4.6 -130.72, -2.85 -134.46, 0 -140.58 M-6.34 -126.98 C-4.34 -131.27, -2.34 -135.55, 0 -140.58 M0 -140.58 C0 -140.58, 0 -140.58, 0 -140.58 M0 -140.58 C0 -140.58, 0 -140.58, 0 -140.58" stroke="#000000" stroke-width="1" fill="none"></path></g></g><mask></mask><g stroke-linecap="round"><g transform="translate(347.8577008928564 129.9921687199519) rotate(0 0 70.1923076923076)"><path d="M0 0 C0 23.4, 0 116.99, 0 140.38 M0 0 C0 23.4, 0 116.99, 0 140.38" stroke="#000000" stroke-width="1" fill="none"></path></g><g transform="translate(347.8577008928564 129.9921687199519) rotate(0 0 70.1923076923076)"><path d="M0 140.38 L-6.34 126.79 L6.34 126.79 L0 140.38" stroke="none" stroke-width="0" fill="#000000" fill-rule="evenodd"></path><path d="M0 140.38 C-2.35 135.34, -4.7 130.3, -6.34 126.79 M0 140.38 C-2.36 135.33, -4.71 130.28, -6.34 126.79 M-6.34 126.79 C-3.5 126.79, -0.66 126.79, 6.34 126.79 M-6.34 126.79 C-1.47 126.79, 3.39 126.79, 6.34 126.79 M6.34 126.79 C4.45 130.85, 2.55 134.91, 0 140.38 M6.34 126.79 C4.36 131.05, 2.37 135.3, 0 140.38 M0 140.38 C0 140.38, 0 140.38, 0 140.38 M0 140.38 C0 140.38, 0 140.38, 0 140.38" stroke="#000000" stroke-width="1" fill="none"></path></g></g><mask></mask><g stroke-linecap="round"><g transform="translate(490.9346239697802 129.9921687199519) rotate(0 0 70.1923076923076)"><path d="M0 0 C0 23.4, 0 116.99, 0 140.38 M0 0 C0 23.4, 0 116.99, 0 140.38" stroke="#000000" stroke-width="1" fill="none"></path></g><g transform="translate(490.9346239697802 129.9921687199519) rotate(0 0 70.1923076923076)"><path d="M0 140.38 L-6.34 126.79 L6.34 126.79 L0 140.38" stroke="none" stroke-width="0" fill="#000000" fill-rule="evenodd"></path><path d="M0 140.38 C-2.22 135.63, -4.43 130.87, -6.34 126.79 M0 140.38 C-1.65 136.85, -3.29 133.32, -6.34 126.79 M-6.34 126.79 C-3.08 126.79, 0.17 126.79, 6.34 126.79 M-6.34 126.79 C-3.47 126.79, -0.61 126.79, 6.34 126.79 M6.34 126.79 C4.06 131.69, 1.77 136.58, 0 140.38 M6.34 126.79 C4.62 130.47, 2.91 134.14, 0 140.38 M0 140.38 C0 140.38, 0 140.38, 0 140.38 M0 140.38 C0 140.38, 0 140.38, 0 140.38" stroke="#000000" stroke-width="1" fill="none"></path></g></g><mask></mask><g stroke-linecap="round" transform="translate(109.39616243131832 154.03063025841357) rotate(0 29.23076923076917 9.615384615384613)"><path d="M0 0 C0 0, 0 0, 0 0 M0 0 C0 0, 0 0, 0 0 M-0.26 6.4 C1.57 4.29, 3.41 2.17, 4.99 0.36 M-0.26 6.4 C1.56 4.3, 3.38 2.21, 4.99 0.36 M0.13 12.04 C4.26 7.29, 8.39 2.55, 10.63 -0.03 M0.13 12.04 C4.08 7.5, 8.03 2.96, 10.63 -0.03 M-0.13 18.44 C4.73 12.85, 9.59 7.26, 15.62 0.33 M-0.13 18.44 C5.83 11.59, 11.78 4.73, 15.62 0.33 M4.2 19.55 C10.49 12.32, 16.78 5.09, 21.26 -0.07 M4.2 19.55 C10.61 12.18, 17.03 4.8, 21.26 -0.07 M9.85 19.16 C14.61 13.68, 19.37 8.2, 26.25 0.29 M9.85 19.16 C15.22 12.98, 20.59 6.8, 26.25 0.29 M14.83 19.52 C21.21 12.19, 27.58 4.85, 31.89 -0.1 M14.83 19.52 C21.5 11.85, 28.16 4.19, 31.89 -0.1 M20.48 19.12 C24.39 14.63, 28.3 10.13, 36.88 0.26 M20.48 19.12 C26.78 11.88, 33.08 4.63, 36.88 0.26 M25.46 19.48 C31.63 12.39, 37.79 5.3, 42.52 -0.14 M25.46 19.48 C29.74 14.57, 34.02 9.65, 42.52 -0.14 M30.45 19.84 C34.11 15.63, 37.78 11.41, 47.51 0.22 M30.45 19.84 C35.89 13.58, 41.34 7.32, 47.51 0.22 M36.09 19.45 C39.55 15.47, 43.02 11.48, 53.15 -0.17 M36.09 19.45 C42.36 12.24, 48.62 5.04, 53.15 -0.17 M41.08 19.81 C44.5 15.88, 47.91 11.95, 58.14 0.19 M41.08 19.81 C45.93 14.23, 50.78 8.65, 58.14 0.19 M46.72 19.42 C50.32 15.28, 53.92 11.14, 59.19 5.08 M46.72 19.42 C50.88 14.64, 55.03 9.86, 59.19 5.08 M51.71 19.78 C53.83 17.33, 55.96 14.89, 58.93 11.47 M51.71 19.78 C53.25 18.01, 54.79 16.24, 58.93 11.47 M57.35 19.38 C58 18.64, 58.64 17.9, 59.32 17.12 M57.35 19.38 C57.99 18.65, 58.62 17.92, 59.32 17.12" stroke="#fab005" stroke-width="0.5" fill="none"></path><path d="M0 0 C17.6 0, 35.19 0, 58.46 0 M0 0 C16.59 0, 33.18 0, 58.46 0 M58.46 0 C58.46 6.2, 58.46 12.4, 58.46 19.23 M58.46 0 C58.46 7.42, 58.46 14.85, 58.46 19.23 M58.46 19.23 C40.04 19.23, 21.61 19.23, 0 19.23 M58.46 19.23 C46.36 19.23, 34.25 19.23, 0 19.23 M0 19.23 C0 11.74, 0 4.24, 0 0 M0 19.23 C0 14.9, 0 10.57, 0 0" stroke="#e67700" stroke-width="1" fill="none"></path></g><g stroke-linecap="round" transform="translate(172.83745797787697 216.64196629080197) rotate(0 18.96761133603229 9.352226720647849)"><path d="M0 0 C0 0, 0 0, 0 0 M0 0 C0 0, 0 0, 0 0 M-0.26 6.4 C1.24 4.67, 2.75 2.93, 4.99 0.36 M-0.26 6.4 C1.19 4.72, 2.65 3.05, 4.99 0.36 M0.13 12.04 C3.11 8.62, 6.09 5.19, 10.63 -0.03 M0.13 12.04 C3.16 8.56, 6.18 5.08, 10.63 -0.03 M-0.13 18.44 C6.09 11.28, 12.31 4.13, 15.62 0.33 M-0.13 18.44 C5.71 11.72, 11.55 5.01, 15.62 0.33 M4.2 19.55 C7.64 15.6, 11.08 11.64, 21.26 -0.07 M4.2 19.55 C7.75 15.47, 11.3 11.39, 21.26 -0.07 M9.85 19.16 C14.63 13.66, 19.41 8.15, 26.25 0.29 M9.85 19.16 C14.05 14.32, 18.26 9.48, 26.25 0.29 M14.83 19.52 C21.62 11.71, 28.41 3.9, 31.89 -0.1 M14.83 19.52 C18.41 15.41, 21.98 11.3, 31.89 -0.1 M20.48 19.12 C25.98 12.79, 31.49 6.45, 36.88 0.26 M20.48 19.12 C24.72 14.24, 28.96 9.37, 36.88 0.26 M25.46 19.48 C29.71 14.6, 33.95 9.72, 37.93 5.14 M25.46 19.48 C29.91 14.36, 34.36 9.24, 37.93 5.14 M31.11 19.09 C32.58 17.39, 34.06 15.69, 38.32 10.79 M31.11 19.09 C33.14 16.75, 35.18 14.41, 38.32 10.79 M36.09 19.45 C36.52 18.96, 36.95 18.47, 38.06 17.19 M36.09 19.45 C36.68 18.78, 37.26 18.11, 38.06 17.19" stroke="#228be6" stroke-width="0.5" fill="none"></path><path d="M0 0 C11.25 0, 22.51 0, 37.94 0 M0 0 C11.04 0, 22.09 0, 37.94 0 M37.94 0 C37.94 7.38, 37.94 14.75, 37.94 18.7 M37.94 0 C37.94 5.19, 37.94 10.38, 37.94 18.7 M37.94 18.7 C30.26 18.7, 22.58 18.7, 0 18.7 M37.94 18.7 C24.99 18.7, 12.05 18.7, 0 18.7 M0 18.7 C0 12.59, 0 6.47, 0 0 M0 18.7 C0 14.34, 0 9.98, 0 0" stroke="#1864ab" stroke-width="1" fill="none"></path></g><g stroke-linecap="round" transform="translate(216.7848263989299 216.3788083960651) rotate(0 28.96761133603229 9.878542510121463)"><path d="M0 0 C0 0, 0 0, 0 0 M0 0 C0 0, 0 0, 0 0 M0.13 12.04 C2.8 8.97, 5.47 5.9, 10.63 -0.03 M0.13 12.04 C2.37 9.47, 4.61 6.89, 10.63 -0.03 M4.2 19.55 C7.82 15.4, 11.43 11.24, 21.26 -0.07 M4.2 19.55 C10.75 12.02, 17.3 4.48, 21.26 -0.07 M14.83 19.52 C20.64 12.84, 26.44 6.16, 31.89 -0.1 M14.83 19.52 C21.53 11.81, 28.23 4.11, 31.89 -0.1 M25.46 19.48 C30 14.27, 34.54 9.05, 42.52 -0.14 M25.46 19.48 C29.64 14.67, 33.83 9.86, 42.52 -0.14 M36.09 19.45 C42.66 11.89, 49.23 4.34, 53.15 -0.17 M36.09 19.45 C42.21 12.41, 48.34 5.37, 53.15 -0.17 M46.72 19.42 C48.97 16.83, 51.21 14.25, 57.88 6.59 M46.72 19.42 C49.23 16.53, 51.74 13.65, 57.88 6.59 M56.7 20.14 C57.04 19.74, 57.39 19.34, 58.01 18.63 M56.7 20.14 C57.05 19.73, 57.41 19.32, 58.01 18.63" stroke="#228be6" stroke-width="1" fill="none"></path><path d="M0 0 C16.15 0, 32.29 0, 57.94 0 M0 0 C13.93 0, 27.86 0, 57.94 0 M57.94 0 C57.94 5.02, 57.94 10.04, 57.94 19.76 M57.94 0 C57.94 5.7, 57.94 11.4, 57.94 19.76 M57.94 19.76 C46.04 19.76, 34.15 19.76, 0 19.76 M57.94 19.76 C38.97 19.76, 20 19.76, 0 19.76 M0 19.76 C0 12.42, 0 5.09, 0 0 M0 19.76 C0 14.94, 0 10.12, 0 0" stroke="#9c36b5" stroke-width="2" fill="none"></path></g><g stroke-linecap="round" transform="translate(351.5216685041928 217.43143997501238) rotate(0 47.65182186234813 9.615384615384613)"><path d="M0 0 C0 0, 0 0, 0 0 M0 0 C0 0, 0 0, 0 0 M0.13 12.04 C3.67 7.98, 7.2 3.91, 10.63 -0.03 M0.13 12.04 C3.25 8.46, 6.36 4.88, 10.63 -0.03 M4.2 19.55 C8.5 14.61, 12.79 9.67, 21.26 -0.07 M4.2 19.55 C9.05 13.98, 13.9 8.4, 21.26 -0.07 M14.83 19.52 C21.15 12.25, 27.46 4.99, 31.89 -0.1 M14.83 19.52 C21.34 12.04, 27.84 4.56, 31.89 -0.1 M25.46 19.48 C30.61 13.57, 35.75 7.65, 42.52 -0.14 M25.46 19.48 C31.93 12.05, 38.39 4.61, 42.52 -0.14 M36.09 19.45 C42.7 11.85, 49.31 4.24, 53.15 -0.17 M36.09 19.45 C41.51 13.21, 46.94 6.98, 53.15 -0.17 M46.72 19.42 C50.82 14.71, 54.91 10, 63.78 -0.21 M46.72 19.42 C52.68 12.56, 58.64 5.7, 63.78 -0.21 M57.35 19.38 C62.1 13.92, 66.85 8.46, 74.41 -0.24 M57.35 19.38 C64.16 11.55, 70.97 3.72, 74.41 -0.24 M67.98 19.35 C72.53 14.11, 77.08 8.88, 85.04 -0.28 M67.98 19.35 C71.88 14.86, 75.79 10.37, 85.04 -0.28 M78.61 19.31 C82.91 14.37, 87.2 9.43, 95.67 -0.31 M78.61 19.31 C83.71 13.45, 88.81 7.58, 95.67 -0.31 M89.24 19.28 C91.01 17.24, 92.79 15.2, 95.15 12.49 M89.24 19.28 C90.61 17.71, 91.98 16.13, 95.15 12.49" stroke="#228be6" stroke-width="1" fill="none"></path><path d="M0 0 C21.11 0, 42.21 0, 95.3 0 M0 0 C22.79 0, 45.58 0, 95.3 0 M95.3 0 C95.3 4.87, 95.3 9.74, 95.3 19.23 M95.3 0 C95.3 4.2, 95.3 8.4, 95.3 19.23 M95.3 19.23 C74.87 19.23, 54.44 19.23, 0 19.23 M95.3 19.23 C67.24 19.23, 39.18 19.23, 0 19.23 M0 19.23 C0 13.17, 0 7.11, 0 0 M0 19.23 C0 12.46, 0 5.68, 0 0" stroke="#9c36b5" stroke-width="2" fill="none"></path></g><g stroke-linecap="round" transform="translate(282.31114218840366 155.99419301144962) rotate(0 30.80971659919021 9.878542510121434)"><path d="M0 0 C0 0, 0 0, 0 0 M0 0 C0 0, 0 0, 0 0 M-0.26 6.4 C1.28 4.63, 2.81 2.86, 4.99 0.36 M-0.26 6.4 C1.33 4.56, 2.93 2.73, 4.99 0.36 M0.13 12.04 C3.97 7.63, 7.81 3.21, 10.63 -0.03 M0.13 12.04 C3.4 8.28, 6.67 4.52, 10.63 -0.03 M-0.13 18.44 C4.76 12.81, 9.65 7.19, 15.62 0.33 M-0.13 18.44 C5.25 12.25, 10.63 6.06, 15.62 0.33 M4.2 19.55 C8.61 14.48, 13.03 9.4, 21.26 -0.07 M4.2 19.55 C8 15.18, 11.8 10.82, 21.26 -0.07 M9.19 19.91 C14.36 13.97, 19.52 8.03, 26.25 0.29 M9.19 19.91 C16 12.08, 22.81 4.25, 26.25 0.29 M14.83 19.52 C19.33 14.34, 23.83 9.17, 31.89 -0.1 M14.83 19.52 C20.27 13.27, 25.7 7.02, 31.89 -0.1 M19.82 19.88 C25.89 12.9, 31.96 5.92, 36.88 0.26 M19.82 19.88 C25.17 13.72, 30.52 7.57, 36.88 0.26 M25.46 19.48 C31.46 12.58, 37.47 5.68, 42.52 -0.14 M25.46 19.48 C32.09 11.86, 38.72 4.23, 42.52 -0.14 M30.45 19.84 C34.72 14.94, 38.98 10.03, 47.51 0.22 M30.45 19.84 C35.61 13.91, 40.76 7.98, 47.51 0.22 M36.09 19.45 C40.17 14.76, 44.24 10.07, 53.15 -0.17 M36.09 19.45 C42.11 12.53, 48.12 5.61, 53.15 -0.17 M41.08 19.81 C47.26 12.7, 53.45 5.59, 58.14 0.19 M41.08 19.81 C45.54 14.67, 50.01 9.54, 58.14 0.19 M46.72 19.42 C51.05 14.44, 55.37 9.47, 61.81 2.06 M46.72 19.42 C52.15 13.18, 57.57 6.94, 61.81 2.06 M51.71 19.78 C55.53 15.38, 59.36 10.98, 62.21 7.7 M51.71 19.78 C54.53 16.53, 57.35 13.29, 62.21 7.7 M56.7 20.14 C57.75 18.92, 58.81 17.7, 61.95 14.1 M56.7 20.14 C58.21 18.4, 59.72 16.66, 61.95 14.1" stroke="#fab005" stroke-width="0.5" fill="none"></path><path d="M0 0 C20.34 0, 40.68 0, 61.62 0 M0 0 C14.4 0, 28.8 0, 61.62 0 M61.62 0 C61.62 6.26, 61.62 12.52, 61.62 19.76 M61.62 0 C61.62 4.67, 61.62 9.34, 61.62 19.76 M61.62 19.76 C39.51 19.76, 17.4 19.76, 0 19.76 M61.62 19.76 C41.13 19.76, 20.65 19.76, 0 19.76 M0 19.76 C0 12.64, 0 5.53, 0 0 M0 19.76 C0 13.27, 0 6.79, 0 0" stroke="#e67700" stroke-width="1" fill="none"></path></g><g stroke-linecap="round" transform="translate(454.942721135772 158.6257719588184) rotate(0 16.07287449392709 9.352226720647678)"><path d="M0 0 C0 0, 0 0, 0 0 M0 0 C0 0, 0 0, 0 0 M-0.26 6.4 C1.61 4.25, 3.48 2.09, 4.99 0.36 M-0.26 6.4 C0.8 5.18, 1.86 3.96, 4.99 0.36 M0.13 12.04 C2.47 9.35, 4.81 6.66, 10.63 -0.03 M0.13 12.04 C2.5 9.32, 4.86 6.61, 10.63 -0.03 M-0.13 18.44 C5.15 12.36, 10.44 6.28, 15.62 0.33 M-0.13 18.44 C5.63 11.82, 11.39 5.19, 15.62 0.33 M4.2 19.55 C9.03 14, 13.87 8.44, 21.26 -0.07 M4.2 19.55 C10.57 12.23, 16.94 4.9, 21.26 -0.07 M9.85 19.16 C14.96 13.28, 20.07 7.39, 26.25 0.29 M9.85 19.16 C15.13 13.08, 20.42 6.99, 26.25 0.29 M14.83 19.52 C19.3 14.38, 23.77 9.24, 31.89 -0.1 M14.83 19.52 C19.48 14.17, 24.13 8.82, 31.89 -0.1 M20.48 19.12 C24.3 14.73, 28.12 10.33, 32.94 4.78 M20.48 19.12 C24.63 14.34, 28.79 9.56, 32.94 4.78 M25.46 19.48 C27.55 17.08, 29.64 14.68, 32.68 11.18 M25.46 19.48 C27.81 16.79, 30.15 14.09, 32.68 11.18 M31.11 19.09 C31.45 18.7, 31.79 18.3, 32.42 17.58 M31.11 19.09 C31.42 18.73, 31.74 18.36, 32.42 17.58" stroke="#fab005" stroke-width="0.5" fill="none"></path><path d="M0 0 C7.2 0, 14.39 0, 32.15 0 M0 0 C12.33 0, 24.67 0, 32.15 0 M32.15 0 C32.15 5.59, 32.15 11.18, 32.15 18.7 M32.15 0 C32.15 5.85, 32.15 11.71, 32.15 18.7 M32.15 18.7 C21.64 18.7, 11.13 18.7, 0 18.7 M32.15 18.7 C23.17 18.7, 14.2 18.7, 0 18.7 M0 18.7 C0 13.61, 0 8.52, 0 0 M0 18.7 C0 12.15, 0 5.59, 0 0" stroke="#e67700" stroke-width="1" fill="none"></path></g><g transform="translate(10 153.7722728546123) rotate(0 39.71484375 9)"><text x="39.71484375" y="14.3203125" font-family="Times New Roman" font-size="16px" fill="#495057" text-anchor="middle" style="white-space: pre;" direction="ltr" dominant-baseline="alphabetic">WAN delay</text></g><g transform="translate(15.609375 225.7722728546123) rotate(0 36.91015625 9)"><text x="36.91015625" y="14.3203125" font-family="Times New Roman" font-size="16px" fill="#495057" text-anchor="middle" style="white-space: pre;" direction="ltr" dominant-baseline="alphabetic">LAN delay</text></g><g transform="translate(279.2233859890107 288.2722728546123) rotate(0 17.48046875 9)"><text x="17.48046875" y="14.3203125" font-family="Times New Roman" font-size="16px" fill="#495057" text-anchor="middle" style="white-space: pre;" direction="ltr" dominant-baseline="alphabetic">Time</text></g><g stroke-linecap="round" transform="translate(103.10770089285688 43.15887588946953) rotate(0 195.9999999999999 11.5)"><path d="M0 0 C0 0, 0 0, 0 0 M0 0 C0 0, 0 0, 0 0 M-0.26 6.4 C0.94 5.01, 2.15 3.63, 4.99 0.36 M-0.26 6.4 C1.42 4.46, 3.11 2.52, 4.99 0.36 M0.13 12.04 C2.54 9.27, 4.95 6.5, 10.63 -0.03 M0.13 12.04 C2.94 8.82, 5.74 5.59, 10.63 -0.03 M-0.13 18.44 C3.93 13.77, 7.99 9.1, 15.62 0.33 M-0.13 18.44 C4.92 12.63, 9.97 6.82, 15.62 0.33 M0.92 23.33 C6.08 17.39, 11.24 11.46, 21.26 -0.07 M0.92 23.33 C7.57 15.68, 14.21 8.04, 21.26 -0.07 M5.91 23.69 C12.08 16.58, 18.26 9.48, 26.25 0.29 M5.91 23.69 C12.01 16.67, 18.12 9.64, 26.25 0.29 M11.55 23.29 C17.78 16.12, 24.01 8.96, 31.89 -0.1 M11.55 23.29 C18.94 14.79, 26.34 6.29, 31.89 -0.1 M16.54 23.65 C21.3 18.17, 26.07 12.69, 36.88 0.26 M16.54 23.65 C22.31 17.01, 28.09 10.37, 36.88 0.26 M22.18 23.26 C30.23 14, 38.28 4.74, 42.52 -0.14 M22.18 23.26 C26.48 18.31, 30.78 13.37, 42.52 -0.14 M27.17 23.62 C33.24 16.63, 39.31 9.65, 47.51 0.22 M27.17 23.62 C31.55 18.58, 35.93 13.54, 47.51 0.22 M32.81 23.22 C39.14 15.94, 45.48 8.66, 53.15 -0.17 M32.81 23.22 C37.35 18.01, 41.88 12.79, 53.15 -0.17 M37.8 23.58 C44.45 15.94, 51.09 8.29, 58.14 0.19 M37.8 23.58 C45.04 15.25, 52.29 6.92, 58.14 0.19 M42.79 23.94 C47.49 18.54, 52.19 13.13, 63.78 -0.21 M42.79 23.94 C48.45 17.43, 54.11 10.92, 63.78 -0.21 M48.43 23.55 C55.15 15.82, 61.87 8.09, 68.77 0.15 M48.43 23.55 C54.28 16.82, 60.12 10.1, 68.77 0.15 M53.42 23.91 C59.41 17.01, 65.4 10.12, 74.41 -0.24 M53.42 23.91 C60.59 15.66, 67.76 7.41, 74.41 -0.24 M59.06 23.51 C65.2 16.45, 71.35 9.38, 79.4 0.12 M59.06 23.51 C65.34 16.29, 71.61 9.07, 79.4 0.12 M64.05 23.87 C68.86 18.33, 73.68 12.79, 85.04 -0.28 M64.05 23.87 C71.35 15.48, 78.65 7.08, 85.04 -0.28 M69.69 23.48 C74.08 18.43, 78.46 13.39, 90.03 0.08 M69.69 23.48 C74.53 17.92, 79.36 12.35, 90.03 0.08 M74.68 23.84 C82.45 14.9, 90.22 5.96, 95.67 -0.31 M74.68 23.84 C81.3 16.22, 87.93 8.6, 95.67 -0.31 M80.32 23.45 C84.92 18.15, 89.53 12.85, 100.66 0.05 M80.32 23.45 C84.64 18.48, 88.95 13.52, 100.66 0.05 M85.31 23.81 C89.59 18.88, 93.86 13.96, 106.3 -0.34 M85.31 23.81 C93.53 14.35, 101.75 4.89, 106.3 -0.34 M90.95 23.41 C96.46 17.08, 101.96 10.74, 111.29 0.02 M90.95 23.41 C96.8 16.69, 102.64 9.96, 111.29 0.02 M95.94 23.77 C100.15 18.93, 104.36 14.08, 116.27 0.38 M95.94 23.77 C100.84 18.13, 105.74 12.5, 116.27 0.38 M101.58 23.38 C107 17.15, 112.41 10.92, 121.92 -0.02 M101.58 23.38 C106.42 17.81, 111.26 12.24, 121.92 -0.02 M106.57 23.74 C111.42 18.16, 116.26 12.58, 126.91 0.34 M106.57 23.74 C111.6 17.95, 116.63 12.16, 126.91 0.34 M112.21 23.34 C118.56 16.04, 124.9 8.74, 132.55 -0.05 M112.21 23.34 C119.48 14.98, 126.75 6.62, 132.55 -0.05 M117.2 23.7 C124.06 15.81, 130.92 7.92, 137.54 0.31 M117.2 23.7 C123.58 16.36, 129.96 9.02, 137.54 0.31 M122.84 23.31 C128.7 16.57, 134.56 9.83, 143.18 -0.09 M122.84 23.31 C128.07 17.29, 133.31 11.27, 143.18 -0.09 M127.83 23.67 C134.43 16.07, 141.03 8.48, 148.17 0.27 M127.83 23.67 C133.14 17.55, 138.46 11.44, 148.17 0.27 M133.47 23.27 C138.68 17.29, 143.88 11.3, 153.81 -0.12 M133.47 23.27 C138.94 16.99, 144.4 10.7, 153.81 -0.12 M138.46 23.63 C142.57 18.9, 146.69 14.16, 158.8 0.24 M138.46 23.63 C143.14 18.25, 147.82 12.86, 158.8 0.24 M144.1 23.24 C149.35 17.2, 154.6 11.16, 164.44 -0.16 M144.1 23.24 C149 17.6, 153.91 11.96, 164.44 -0.16 M149.09 23.6 C156.29 15.32, 163.48 7.04, 169.43 0.2 M149.09 23.6 C154.77 17.07, 160.45 10.53, 169.43 0.2 M154.07 23.96 C160.77 16.26, 167.46 8.56, 175.07 -0.19 M154.07 23.96 C161.27 15.69, 168.46 7.41, 175.07 -0.19 M159.72 23.56 C166.71 15.52, 173.7 7.48, 180.06 0.17 M159.72 23.56 C167.57 14.53, 175.43 5.49, 180.06 0.17 M164.7 23.92 C169.81 18.05, 174.91 12.18, 185.7 -0.23 M164.7 23.92 C170.17 17.64, 175.64 11.35, 185.7 -0.23 M170.35 23.53 C176.81 16.1, 183.27 8.66, 190.69 0.13 M170.35 23.53 C175.38 17.74, 180.41 11.95, 190.69 0.13 M175.33 23.89 C179.9 18.64, 184.46 13.4, 196.33 -0.26 M175.33 23.89 C179.53 19.06, 183.74 14.23, 196.33 -0.26 M180.98 23.5 C185.1 18.75, 189.23 14.01, 201.32 0.1 M180.98 23.5 C186.63 16.99, 192.29 10.48, 201.32 0.1 M185.96 23.86 C190.35 18.81, 194.74 13.76, 206.96 -0.3 M185.96 23.86 C191.98 16.94, 197.99 10.03, 206.96 -0.3 M191.61 23.46 C197.86 16.27, 204.11 9.08, 211.95 0.06 M191.61 23.46 C195.92 18.5, 200.23 13.54, 211.95 0.06 M196.59 23.82 C204.31 14.95, 212.02 6.07, 217.59 -0.33 M196.59 23.82 C204.2 15.07, 211.81 6.32, 217.59 -0.33 M202.24 23.43 C208.76 15.92, 215.29 8.41, 222.58 0.03 M202.24 23.43 C208.38 16.37, 214.51 9.31, 222.58 0.03 M207.23 23.79 C211.9 18.41, 216.57 13.04, 228.22 -0.36 M207.23 23.79 C215.41 14.37, 223.6 4.95, 228.22 -0.36 M212.87 23.39 C219.26 16.04, 225.65 8.69, 233.21 0 M212.87 23.39 C219.35 15.93, 225.84 8.47, 233.21 0 M217.86 23.75 C223.67 17.06, 229.48 10.37, 238.19 0.36 M217.86 23.75 C222.94 17.9, 228.03 12.04, 238.19 0.36 M223.5 23.36 C230.4 15.42, 237.3 7.48, 243.84 -0.04 M223.5 23.36 C230.69 15.09, 237.87 6.82, 243.84 -0.04 M228.49 23.72 C233.57 17.87, 238.66 12.02, 248.82 0.32 M228.49 23.72 C235.45 15.7, 242.42 7.69, 248.82 0.32 M234.13 23.32 C238.8 17.95, 243.47 12.57, 254.47 -0.07 M234.13 23.32 C238.49 18.31, 242.84 13.3, 254.47 -0.07 M239.12 23.68 C247.03 14.58, 254.94 5.48, 259.45 0.29 M239.12 23.68 C246.95 14.67, 254.78 5.66, 259.45 0.29 M244.76 23.29 C252.89 13.94, 261.02 4.58, 265.1 -0.11 M244.76 23.29 C249.42 17.93, 254.08 12.57, 265.1 -0.11 M249.75 23.65 C257.02 15.28, 264.3 6.9, 270.08 0.25 M249.75 23.65 C254.12 18.62, 258.49 13.59, 270.08 0.25 M255.39 23.25 C260.38 17.51, 265.37 11.77, 275.73 -0.14 M255.39 23.25 C260.36 17.54, 265.32 11.83, 275.73 -0.14 M260.38 23.61 C268.37 14.42, 276.37 5.22, 280.71 0.22 M260.38 23.61 C268.27 14.54, 276.16 5.46, 280.71 0.22 M265.36 23.97 C272.57 15.68, 279.78 7.38, 286.36 -0.18 M265.36 23.97 C270.08 18.54, 274.8 13.11, 286.36 -0.18 M271.01 23.58 C277.36 16.27, 283.71 8.96, 291.34 0.18 M271.01 23.58 C278.7 14.72, 286.4 5.87, 291.34 0.18 M275.99 23.94 C281.29 17.84, 286.59 11.75, 296.99 -0.21 M275.99 23.94 C281.34 17.78, 286.7 11.63, 296.99 -0.21 M281.64 23.54 C288.04 16.18, 294.44 8.82, 301.97 0.15 M281.64 23.54 C289.36 14.66, 297.09 5.77, 301.97 0.15 M286.62 23.91 C293.17 16.37, 299.72 8.84, 307.62 -0.25 M286.62 23.91 C293.7 15.77, 300.77 7.63, 307.62 -0.25 M292.27 23.51 C300 14.62, 307.73 5.72, 312.6 0.11 M292.27 23.51 C298.45 16.39, 304.64 9.28, 312.6 0.11 M297.25 23.87 C302.34 18.01, 307.43 12.16, 318.25 -0.28 M297.25 23.87 C305.49 14.4, 313.73 4.92, 318.25 -0.28 M302.9 23.48 C308.39 17.15, 313.89 10.83, 323.23 0.08 M302.9 23.48 C310.67 14.54, 318.44 5.6, 323.23 0.08 M307.88 23.84 C315.15 15.47, 322.43 7.11, 328.88 -0.31 M307.88 23.84 C313.37 17.53, 318.85 11.22, 328.88 -0.31 M313.53 23.44 C320.19 15.78, 326.85 8.12, 333.86 0.05 M313.53 23.44 C320.91 14.95, 328.29 6.45, 333.86 0.05 M318.51 23.8 C324.95 16.39, 331.39 8.98, 339.51 -0.35 M318.51 23.8 C324.87 16.49, 331.22 9.18, 339.51 -0.35 M324.16 23.41 C329.77 16.95, 335.38 10.49, 344.49 0.01 M324.16 23.41 C330.57 16.03, 336.99 8.65, 344.49 0.01 M329.14 23.77 C337.04 14.68, 344.94 5.6, 349.48 0.37 M329.14 23.77 C337.16 14.55, 345.17 5.33, 349.48 0.37 M334.79 23.37 C339.28 18.21, 343.77 13.04, 355.12 -0.02 M334.79 23.37 C339.39 18.08, 343.99 12.79, 355.12 -0.02 M339.77 23.73 C344.59 18.19, 349.4 12.65, 360.11 0.34 M339.77 23.73 C346.52 15.97, 353.27 8.2, 360.11 0.34 M345.42 23.34 C350.47 17.53, 355.52 11.71, 365.75 -0.06 M345.42 23.34 C349.51 18.63, 353.6 13.92, 365.75 -0.06 M350.4 23.7 C356.08 17.17, 361.76 10.63, 370.74 0.3 M350.4 23.7 C355.11 18.29, 359.81 12.87, 370.74 0.3 M356.05 23.3 C360.65 18, 365.26 12.71, 376.38 -0.09 M356.05 23.3 C361.43 17.11, 366.82 10.91, 376.38 -0.09 M361.03 23.66 C367.62 16.09, 374.21 8.51, 381.37 0.27 M361.03 23.66 C367.67 16.03, 374.3 8.4, 381.37 0.27 M366.68 23.27 C370.82 18.5, 374.97 13.73, 387.01 -0.13 M366.68 23.27 C374.01 14.84, 381.34 6.41, 387.01 -0.13 M371.66 23.63 C378.99 15.2, 386.32 6.76, 392 0.23 M371.66 23.63 C379.17 14.99, 386.68 6.35, 392 0.23 M377.31 23.23 C380.49 19.57, 383.67 15.91, 392.4 5.88 M377.31 23.23 C382.59 17.16, 387.87 11.09, 392.4 5.88 M382.29 23.59 C385.83 19.52, 389.37 15.45, 392.13 12.27 M382.29 23.59 C384.57 20.97, 386.85 18.35, 392.13 12.27 M387.28 23.95 C388.47 22.59, 389.66 21.22, 391.87 18.67 M387.28 23.95 C388.26 22.82, 389.25 21.69, 391.87 18.67" stroke="#868e96" stroke-width="0.5" fill="none"></path><path d="M0 0 C141.86 0, 283.71 0, 392 0 M0 0 C154.41 0, 308.82 0, 392 0 M392 0 C392 5.96, 392 11.93, 392 23 M392 0 C392 8.2, 392 16.4, 392 23 M392 23 C259.29 23, 126.58 23, 0 23 M392 23 C259.62 23, 127.24 23, 0 23 M0 23 C0 15.38, 0 7.75, 0 0 M0 23 C0 13.91, 0 4.82, 0 0" stroke="#000000" stroke-width="1" fill="none"></path></g><g stroke-opacity="0.5" fill-opacity="0.5" stroke-linecap="round" transform="translate(166.31494926860432 42.927526742266224) rotate(0 25.812050506645278 11.833807384855035)"><path d="M51.62 11.83 C51.62 12.52, 51.49 13.21, 51.23 13.89 C50.97 14.56, 50.58 15.24, 50.07 15.88 C49.56 16.52, 48.91 17.16, 48.17 17.75 C47.42 18.34, 46.55 18.92, 45.59 19.44 C44.62 19.97, 43.55 20.46, 42.4 20.9 C41.26 21.34, 40.01 21.74, 38.72 22.08 C37.42 22.42, 36.04 22.72, 34.64 22.95 C33.24 23.19, 31.77 23.37, 30.29 23.49 C28.82 23.61, 27.31 23.67, 25.81 23.67 C24.32 23.67, 22.8 23.61, 21.33 23.49 C19.86 23.37, 18.39 23.19, 16.98 22.95 C15.58 22.72, 14.2 22.42, 12.91 22.08 C11.61 21.74, 10.36 21.34, 9.22 20.9 C8.08 20.46, 7 19.97, 6.04 19.44 C5.08 18.92, 4.21 18.34, 3.46 17.75 C2.71 17.16, 2.07 16.52, 1.56 15.88 C1.05 15.24, 0.65 14.56, 0.39 13.89 C0.13 13.21, 0 12.52, 0 11.83 C0 11.15, 0.13 10.45, 0.39 9.78 C0.65 9.1, 1.05 8.43, 1.56 7.79 C2.07 7.14, 2.71 6.51, 3.46 5.92 C4.21 5.32, 5.08 4.75, 6.04 4.23 C7 3.7, 8.08 3.21, 9.22 2.77 C10.36 2.33, 11.61 1.93, 12.91 1.59 C14.2 1.24, 15.58 0.95, 16.98 0.71 C18.39 0.48, 19.86 0.3, 21.33 0.18 C22.8 0.06, 24.32 0, 25.81 0 C27.31 0, 28.82 0.06, 30.29 0.18 C31.77 0.3, 33.24 0.48, 34.64 0.71 C36.04 0.95, 37.42 1.24, 38.72 1.59 C40.01 1.93, 41.26 2.33, 42.4 2.77 C43.55 3.21, 44.62 3.7, 45.59 4.23 C46.55 4.75, 47.42 5.32, 48.17 5.92 C48.91 6.51, 49.56 7.14, 50.07 7.79 C50.58 8.43, 50.97 9.1, 51.23 9.78 C51.49 10.45, 51.56 11.49, 51.62 11.83 C51.69 12.18, 51.69 11.49, 51.62 11.83" stroke="none" stroke-width="0" fill="#868e96"></path><path d="M51.62 11.83 C51.62 12.52, 51.49 13.21, 51.23 13.89 C50.97 14.56, 50.58 15.24, 50.07 15.88 C49.56 16.52, 48.91 17.16, 48.17 17.75 C47.42 18.34, 46.55 18.92, 45.59 19.44 C44.62 19.97, 43.55 20.46, 42.4 20.9 C41.26 21.34, 40.01 21.74, 38.72 22.08 C37.42 22.42, 36.04 22.72, 34.64 22.95 C33.24 23.19, 31.77 23.37, 30.29 23.49 C28.82 23.61, 27.31 23.67, 25.81 23.67 C24.32 23.67, 22.8 23.61, 21.33 23.49 C19.86 23.37, 18.39 23.19, 16.98 22.95 C15.58 22.72, 14.2 22.42, 12.91 22.08 C11.61 21.74, 10.36 21.34, 9.22 20.9 C8.08 20.46, 7 19.97, 6.04 19.44 C5.08 18.92, 4.21 18.34, 3.46 17.75 C2.71 17.16, 2.07 16.52, 1.56 15.88 C1.05 15.24, 0.65 14.56, 0.39 13.89 C0.13 13.21, 0 12.52, 0 11.83 C0 11.15, 0.13 10.45, 0.39 9.78 C0.65 9.1, 1.05 8.43, 1.56 7.79 C2.07 7.14, 2.71 6.51, 3.46 5.92 C4.21 5.32, 5.08 4.75, 6.04 4.23 C7 3.7, 8.08 3.21, 9.22 2.77 C10.36 2.33, 11.61 1.93, 12.91 1.59 C14.2 1.24, 15.58 0.95, 16.98 0.71 C18.39 0.48, 19.86 0.3, 21.33 0.18 C22.8 0.06, 24.32 0, 25.81 0 C27.31 0, 28.82 0.06, 30.29 0.18 C31.77 0.3, 33.24 0.48, 34.64 0.71 C36.04 0.95, 37.42 1.24, 38.72 1.59 C40.01 1.93, 41.26 2.33, 42.4 2.77 C43.55 3.21, 44.62 3.7, 45.59 4.23 C46.55 4.75, 47.42 5.32, 48.17 5.92 C48.91 6.51, 49.56 7.14, 50.07 7.79 C50.58 8.43, 50.97 9.1, 51.23 9.78 C51.49 10.45, 51.56 11.49, 51.62 11.83 C51.69 12.18, 51.69 11.49, 51.62 11.83" stroke="#1e1e1e" stroke-width="1" fill="none"></path></g><g transform="translate(32.980173527369516 184.3898821436283) rotate(0 30.114776611328125 13.4048133247814)"><text x="60.22955322265625" y="10.724078323094894" font-family="Times New Roman" font-size="11.656359412853384px" fill="#868e96" text-anchor="end" style="white-space: pre;" direction="ltr" dominant-baseline="alphabetic">observation</text><text x="60.22955322265625" y="24.128891647876284" font-family="Times New Roman" font-size="11.656359412853384px" fill="#868e96" text-anchor="end" style="white-space: pre;" direction="ltr" dominant-baseline="alphabetic">point</text></g></svg>